<svg width="25" height="26" viewBox="0 0 25 26" fill="none" xmlns="http://www.w3.org/2000/svg">
<path d="M0 12.5C0 5.59644 5.59644 0 12.5 0C19.4036 0 25 5.59644 25 12.5V13.5C25 20.4036 19.4036 26 12.5 26C5.59644 26 0 20.4036 0 13.5V12.5Z" fill="#120D0D"/>
<ellipse cx="12.5" cy="13" rx="9.375" ry="9.75" fill="#7E869E" fill-opacity="0.25"/>
<path d="M13.5417 7.58333C13.5417 8.18164 13.0753 8.66667 12.5 8.66667C11.9247 8.66667 11.4584 8.18164 11.4584 7.58333C11.4584 6.98502 11.9247 6.5 12.5 6.5C13.0753 6.5 13.5417 6.98502 13.5417 7.58333Z" fill="white"/>
<path d="M12.5 17.8748V12.3748C12.5 11.832 12.5 11.5606 12.4305 11.3404C12.2834 10.8737 11.9178 10.5081 11.451 10.3609C11.2308 10.2915 10.9594 10.2915 10.4166 10.2915V10.2915M12.5 17.8748H14.0625M12.5 17.8748H10.9375" stroke="white"/>
</svg>
