<svg width="27" height="26" viewBox="0 0 27 26" fill="none" xmlns="http://www.w3.org/2000/svg">
<path d="M0 13C0 5.8203 5.8203 0 13 0H13.8663C21.046 0 26.8663 5.8203 26.8663 13C26.8663 20.1797 21.046 26 13.8663 26H13C5.82029 26 0 20.1797 0 13Z" fill="#747474"/>
<ellipse cx="13.4333" cy="13" rx="10.0749" ry="9.75" fill="#747474" fill-opacity="0.25"/>
<path d="M14.5526 7.58333C14.5526 8.18164 14.0514 8.66667 13.4332 8.66667C12.8149 8.66667 12.3137 8.18164 12.3137 7.58333C12.3137 6.98502 12.8149 6.5 13.4332 6.5C14.0514 6.5 14.5526 6.98502 14.5526 7.58333Z" fill="white"/>
<path d="M13.4332 17.8748V12.5304C13.4332 11.8419 13.4332 11.4977 13.3223 11.2256C13.17 10.8515 12.8732 10.5547 12.4991 10.4024C12.227 10.2915 11.8828 10.2915 11.1943 10.2915V10.2915M13.4332 17.8748H15.1123M13.4332 17.8748H11.7541" stroke="white"/>
</svg>
