<svg width="32" height="32" viewBox="0 0 32 32" fill="none" xmlns="http://www.w3.org/2000/svg">
<circle cx="16" cy="16" r="15.5" fill="white" stroke="#CCD2E3"/>
<path d="M16.3843 22.0688L15.9402 21.1728L15.9402 21.1728L16.3843 22.0688ZM15.6157 22.0688L16.0598 21.1728L16.0598 21.1728L15.6157 22.0688ZM22 13.6248C22 15.6565 20.9171 17.3429 19.5475 18.6629C18.1814 19.9795 16.6294 20.8312 15.9402 21.1728L16.8284 22.9648C17.604 22.5804 19.3599 21.6213 20.9354 20.103C22.5074 18.588 24 16.4155 24 13.6248H22ZM16 7.9165C19.3542 7.9165 22 10.5119 22 13.6248H24C24 9.32796 20.3777 5.9165 16 5.9165V7.9165ZM10 13.6248C10 10.5119 12.6458 7.9165 16 7.9165V5.9165C11.6223 5.9165 8 9.32796 8 13.6248H10ZM16.0598 21.1728C15.3706 20.8312 13.8186 19.9795 12.4525 18.6629C11.0829 17.3429 10 15.6565 10 13.6248H8C8 16.4155 9.49262 18.588 11.0646 20.103C12.6401 21.6213 14.396 22.5804 15.1716 22.9648L16.0598 21.1728ZM15.9402 21.1728C15.9532 21.1664 15.9742 21.16 16 21.16C16.0258 21.16 16.0468 21.1664 16.0598 21.1728L15.1716 22.9648C15.6969 23.2251 16.3031 23.2251 16.8284 22.9648L15.9402 21.1728ZM18 13.6248C18 14.6207 17.1451 15.4998 16 15.4998V17.4998C18.1686 17.4998 20 15.8046 20 13.6248H18ZM16 11.7498C17.1451 11.7498 18 12.629 18 13.6248H20C20 11.4451 18.1686 9.74984 16 9.74984V11.7498ZM14 13.6248C14 12.629 14.8549 11.7498 16 11.7498V9.74984C13.8314 9.74984 12 11.445 12 13.6248H14ZM16 15.4998C14.8549 15.4998 14 14.6207 14 13.6248H12C12 15.8046 13.8314 17.4998 16 17.4998V15.4998Z" fill="#CCD2E3"/>
<path d="M23.7942 21.771C24.5841 22.2081 25 22.7038 25 23.2085C25 23.7132 24.5841 24.2089 23.7942 24.646C23.0043 25.0831 21.8682 25.446 20.5 25.6983C19.1318 25.9507 17.5798 26.0835 16 26.0835C14.4202 26.0835 12.8682 25.9507 11.5 25.6983C10.1318 25.446 8.99569 25.0831 8.20577 24.646C7.41586 24.2089 7 23.7132 7 23.2085C7 22.7038 7.41586 22.2081 8.20577 21.771" stroke="#CCD2E3" stroke-width="2" stroke-linecap="round"/>
</svg>
