<svg width="35" height="32" viewBox="0 0 35 32" fill="none" xmlns="http://www.w3.org/2000/svg">
<path fill-rule="evenodd" clip-rule="evenodd" d="M20.234 14.9773H24.1999C24.8013 14.9773 25.2737 14.5147 25.2737 13.9568C25.2737 13.3853 24.8013 12.9363 24.1999 12.9363H20.234C19.6326 12.9363 19.1602 13.3853 19.1602 13.9568C19.1602 14.5147 19.6326 14.9773 20.234 14.9773ZM28.9104 7.90316C29.7838 7.90316 30.3565 8.1889 30.9292 8.81482C31.5019 9.44073 31.6021 10.3388 31.4732 11.1538L30.1131 20.0799C29.8554 21.7957 28.3091 23.0598 26.4907 23.0598H10.8703C8.96606 23.0598 7.39113 21.6732 7.23364 19.8771L5.91642 5.04438L3.75447 4.6906C3.18177 4.59535 2.78088 4.06469 2.8811 3.52042C2.98133 2.9639 3.53971 2.59515 4.12673 2.67815L7.54146 3.16664C8.02826 3.24964 8.3862 3.62927 8.42915 4.0919L8.70118 7.13982C8.74414 7.5766 9.11639 7.90316 9.57455 7.90316H28.9104ZM10.6409 25.2103C9.43825 25.2103 8.46466 26.1356 8.46466 27.2785C8.46466 28.4079 9.43825 29.3332 10.6409 29.3332C11.8293 29.3332 12.8029 28.4079 12.8029 27.2785C12.8029 26.1356 11.8293 25.2103 10.6409 25.2103ZM26.7482 25.2103C25.5455 25.2103 24.5719 26.1356 24.5719 27.2785C24.5719 28.4079 25.5455 29.3332 26.7482 29.3332C27.9365 29.3332 28.9101 28.4079 28.9101 27.2785C28.9101 26.1356 27.9365 25.2103 26.7482 25.2103Z" fill="#069A8E"/>
</svg>
