<svg width="35" height="32" viewBox="0 0 35 32" fill="none" xmlns="http://www.w3.org/2000/svg">
<path fill-rule="evenodd" clip-rule="evenodd" d="M17.1944 28C24.3166 28 30.0902 22.6274 30.0902 16C30.0902 9.37258 24.3166 4 17.1944 4C10.0722 4 4.29858 9.37258 4.29858 16C4.29858 22.6274 10.0722 28 17.1944 28ZM18.1944 8.66667C18.1944 8.11438 17.7467 7.66667 17.1944 7.66667C16.6421 7.66667 16.1944 8.11438 16.1944 8.66667V15.75C16.1944 16.4404 16.7541 17 17.4444 17H22.2095C22.7617 17 23.2095 16.5523 23.2095 16C23.2095 15.4477 22.7617 15 22.2095 15H18.1944V8.66667Z" fill="#747474"/>
</svg>
