<svg width="35" height="32" viewBox="0 0 35 32" fill="none" xmlns="http://www.w3.org/2000/svg">
<path d="M13.0889 27.6976V23.6207C13.0889 22.5799 14.0022 21.7362 15.1288 21.7362H19.2472C19.7882 21.7362 20.307 21.9348 20.6896 22.2882C21.0722 22.6416 21.2871 23.1209 21.2871 23.6207V27.6976C21.2837 28.1303 21.4673 28.5463 21.7973 28.8534C22.1273 29.1605 22.5764 29.3332 23.0447 29.3332H25.8544C27.1667 29.3363 28.4263 28.857 29.3554 28.0009C30.2845 27.1449 30.8067 25.9825 30.8067 24.7703V13.1556C30.8067 12.1765 30.3368 11.2476 29.5237 10.6194L19.9656 3.56766C18.303 2.33125 15.9208 2.37117 14.3077 3.66248L4.96776 10.6194C4.11624 11.2291 3.6073 12.1607 3.58215 13.1556V24.7584C3.58215 27.285 5.79935 29.3332 8.5344 29.3332H11.2799C12.2528 29.3332 13.0434 28.6081 13.0504 27.7095L13.0889 27.6976Z" fill="#747474"/>
</svg>
