<svg width="32" height="32" viewBox="0 0 32 32" fill="none" xmlns="http://www.w3.org/2000/svg">
<circle cx="16" cy="16" r="15.5" fill="white" stroke="#CCD2E3"/>
<path d="M12 22.9282C13.2162 23.6303 14.5957 24 16 24C17.4043 24 18.7838 23.6303 20 22.9282C21.2162 22.2261 22.2261 21.2162 22.9282 20C23.6303 18.7838 24 17.4043 24 16C24 14.5957 23.6303 13.2162 22.9282 12C22.2261 10.7838 21.2162 9.77394 20 9.0718C18.7838 8.36965 17.4043 8 16 8C14.5957 8 13.2162 8.36965 12 9.0718" stroke="#CCD2E3" stroke-width="2"/>
<path d="M6 16L5.21913 15.3753L4.71938 16L5.21913 16.6247L6 16ZM15 17C15.5523 17 16 16.5523 16 16C16 15.4477 15.5523 15 15 15V17ZM9.21913 10.3753L5.21913 15.3753L6.78087 16.6247L10.7809 11.6247L9.21913 10.3753ZM5.21913 16.6247L9.21913 21.6247L10.7809 20.3753L6.78087 15.3753L5.21913 16.6247ZM6 17H15V15H6V17Z" fill="#CCD2E3"/>
</svg>
