<svg width="32" height="32" viewBox="0 0 32 32" fill="none" xmlns="http://www.w3.org/2000/svg">
<circle cx="16" cy="16" r="15.5" fill="white" stroke="#CCD2E3"/>
<path d="M10.3923 8.4192L11.0109 7.76628C11.4053 7.34994 12.0684 7.34994 12.4628 7.76628L14.8748 10.3123C15.2402 10.698 15.2402 11.302 14.8748 11.6877L13.146 13.5126C12.8676 13.8064 12.7984 14.241 12.9716 14.6068L13.048 14.768C14.0418 16.8661 15.6886 18.5857 17.7417 19.6693C18.1122 19.8648 18.5676 19.7897 18.8558 19.4856L20.4846 17.7663C20.879 17.3499 21.5421 17.3499 21.9365 17.7663L24.3485 20.3123C24.7139 20.698 24.7138 21.302 24.3485 21.6877L24.0388 22.0146C21.9015 24.2706 18.3954 24.5213 15.9589 22.5924L15.2568 22.0366C13.5504 20.6857 12.0443 19.0995 10.7838 17.3253L9.85697 16.0209C8.19681 13.6844 8.42108 10.5 10.3923 8.4192Z" fill="#CCD2E3"/>
</svg>
