<svg width="67" height="64" viewBox="0 0 67 64" fill="none" xmlns="http://www.w3.org/2000/svg">
<g filter="url(#filter0_d_118_237)">
<path d="M8.375 32C8.375 18.7452 19.1202 8 32.375 8H34.625C47.8798 8 58.625 18.7452 58.625 32C58.625 45.2548 47.8798 56 34.625 56H32.375C19.1202 56 8.375 45.2548 8.375 32Z" fill="#1A1A1D" fill-opacity="0.73"/>
<ellipse cx="33.4999" cy="26.6667" rx="11.1667" ry="10.6667" fill="white"/>
<path fill-rule="evenodd" clip-rule="evenodd" d="M51.943 50.6969C51.9847 50.7942 51.9591 50.907 51.8798 50.9772C49.0939 53.4434 45.6114 55.1428 41.7538 55.7538C40.1991 56 38.3411 56 34.6251 56H32.3751C28.659 56 26.801 56 25.2464 55.7538C21.3889 55.1428 17.9064 53.4435 15.1206 50.9774C15.0413 50.9072 15.0157 50.7944 15.0574 50.6971C17.7295 44.4669 24.9778 40 33.5002 40C42.0226 40 49.2708 44.4668 51.943 50.6969Z" fill="white"/>
</g>
<defs>
<filter id="filter0_d_118_237" x="-4" y="0" width="75" height="72" filterUnits="userSpaceOnUse" color-interpolation-filters="sRGB">
<feFlood flood-opacity="0" result="BackgroundImageFix"/>
<feColorMatrix in="SourceAlpha" type="matrix" values="0 0 0 0 0 0 0 0 0 0 0 0 0 0 0 0 0 0 127 0" result="hardAlpha"/>
<feOffset dy="4"/>
<feGaussianBlur stdDeviation="2"/>
<feComposite in2="hardAlpha" operator="out"/>
<feColorMatrix type="matrix" values="0 0 0 0 0 0 0 0 0 0 0 0 0 0 0 0 0 0 0.25 0"/>
<feBlend mode="normal" in2="BackgroundImageFix" result="effect1_dropShadow_118_237"/>
<feBlend mode="normal" in="SourceGraphic" in2="effect1_dropShadow_118_237" result="shape"/>
</filter>
</defs>
</svg>
