<svg width="25" height="23" viewBox="0 0 25 23" fill="none" xmlns="http://www.w3.org/2000/svg">
<path d="M3.125 10.875C3.125 7.10376 3.125 5.21815 4.29657 4.04657C5.46815 2.875 7.35376 2.875 11.125 2.875H13.875C17.6462 2.875 19.5319 2.875 20.7034 4.04657C21.875 5.21815 21.875 7.10376 21.875 10.875V12.125C21.875 15.8962 21.875 17.7819 20.7034 18.9534C19.5319 20.125 17.6462 20.125 13.875 20.125H11.125C7.35376 20.125 5.46815 20.125 4.29657 18.9534C3.125 17.7819 3.125 15.8962 3.125 12.125V10.875Z" stroke="black" stroke-width="2"/>
<path d="M12.5 7.6665L12.5 15.3332" stroke="black" stroke-width="2" stroke-linecap="square" stroke-linejoin="round"/>
<path d="M16.6667 11.5L8.33341 11.5" stroke="black" stroke-width="2" stroke-linecap="square" stroke-linejoin="round"/>
</svg>
